<mxfile host="app.diagrams.net" modified="2023-11-14T17:20:37.167Z" agent="Mozilla/5.0 (Windows NT 10.0; Win64; x64) AppleWebKit/537.36 (KHTML, like Gecko) Chrome/116.0.0.0 Safari/537.36" etag="gPtZBZBR_8BwvKm0zRsr" version="22.1.1" type="device" pages="2">
  <diagram name="Trang-1" id="rMMeLbgcHGs0ZQBgUNki">
    <mxGraphModel dx="1006" dy="1778" grid="1" gridSize="10" guides="1" tooltips="1" connect="1" arrows="1" fold="1" page="1" pageScale="1" pageWidth="827" pageHeight="1169" math="0" shadow="0">
      <root>
        <mxCell id="0" />
        <mxCell id="1" parent="0" />
        <mxCell id="IUzK1FNPa1s5LJcssFMt-1" value="Hệ thống quản lý đặt phòng khách sạn" style="rounded=0;whiteSpace=wrap;html=1;fontSize=10;" parent="1" vertex="1">
          <mxGeometry x="370" width="160" height="70" as="geometry" />
        </mxCell>
        <mxCell id="IUzK1FNPa1s5LJcssFMt-2" value="&lt;font style=&quot;font-size: 10px;&quot;&gt;Phân tích yêu cầu&lt;br style=&quot;font-size: 10px;&quot;&gt;(1.200.000 VNĐ)&lt;/font&gt;" style="rounded=0;whiteSpace=wrap;html=1;fontSize=10;" parent="1" vertex="1">
          <mxGeometry x="10" y="120" width="120" height="60" as="geometry" />
        </mxCell>
        <mxCell id="IUzK1FNPa1s5LJcssFMt-3" value="Phân tích hệ thống&lt;br&gt;(800.000 VNĐ)" style="rounded=0;whiteSpace=wrap;html=1;fontSize=10;" parent="1" vertex="1">
          <mxGeometry x="160" y="120" width="120" height="60" as="geometry" />
        </mxCell>
        <mxCell id="IUzK1FNPa1s5LJcssFMt-4" value="Thiết kế hệ thống&lt;br&gt;(6.000.000 VNĐ)" style="rounded=0;whiteSpace=wrap;html=1;fontSize=10;" parent="1" vertex="1">
          <mxGeometry x="310" y="120" width="120" height="60" as="geometry" />
        </mxCell>
        <mxCell id="IUzK1FNPa1s5LJcssFMt-5" value="&lt;span style=&quot;background-color: initial; font-size: 10px;&quot;&gt;Cài đặt hệ thống&lt;/span&gt;&lt;br style=&quot;font-size: 10px;&quot;&gt;&lt;p style=&quot;margin-left: 1in; font-size: 10px;&quot; class=&quot;MsoNormal&quot;&gt;&lt;/p&gt;" style="rounded=0;whiteSpace=wrap;html=1;fontSize=10;" parent="1" vertex="1">
          <mxGeometry x="460" y="120" width="120" height="60" as="geometry" />
        </mxCell>
        <mxCell id="IUzK1FNPa1s5LJcssFMt-6" value="&lt;span style=&quot;background-color: initial; font-size: 10px;&quot;&gt;Kiểm thử hệ thống&lt;/span&gt;&lt;br style=&quot;font-size: 10px;&quot;&gt;&lt;p style=&quot;margin-left: 1in; font-size: 10px;&quot; class=&quot;MsoNormal&quot;&gt;&lt;/p&gt;" style="rounded=0;whiteSpace=wrap;html=1;fontSize=10;" parent="1" vertex="1">
          <mxGeometry x="610" y="120" width="120" height="60" as="geometry" />
        </mxCell>
        <mxCell id="IUzK1FNPa1s5LJcssFMt-7" value="&lt;span style=&quot;background-color: initial; font-size: 10px;&quot;&gt;&amp;nbsp;Phát hành sản phẩm&lt;/span&gt;&lt;br style=&quot;font-size: 10px;&quot;&gt;&lt;p style=&quot;margin-left: 1in; font-size: 10px;&quot; class=&quot;MsoNormal&quot;&gt;&lt;/p&gt;" style="rounded=0;whiteSpace=wrap;html=1;fontSize=10;" parent="1" vertex="1">
          <mxGeometry x="760" y="120" width="120" height="60" as="geometry" />
        </mxCell>
        <mxCell id="IUzK1FNPa1s5LJcssFMt-8" value="Thu thập yêu cầu&lt;br&gt;300.000 VNĐ" style="rounded=0;whiteSpace=wrap;html=1;fontSize=10;" parent="1" vertex="1">
          <mxGeometry x="10" y="200" width="120" height="60" as="geometry" />
        </mxCell>
        <mxCell id="IUzK1FNPa1s5LJcssFMt-9" value="Đặc tả yêu cầu&lt;br&gt;300.000 VNĐ" style="rounded=0;whiteSpace=wrap;html=1;fontSize=10;" parent="1" vertex="1">
          <mxGeometry x="10" y="280" width="120" height="60" as="geometry" />
        </mxCell>
        <mxCell id="IUzK1FNPa1s5LJcssFMt-10" value="Nghiên cứu khả thi&lt;br&gt;300.000 VNĐ" style="rounded=0;whiteSpace=wrap;html=1;fontSize=10;" parent="1" vertex="1">
          <mxGeometry x="10" y="360" width="120" height="60" as="geometry" />
        </mxCell>
        <mxCell id="f_ZjguVdzdU-RNICKI7y-1" value="Xác định yêu cầu hệ thống&lt;br&gt;300.000 VNĐ" style="rounded=0;whiteSpace=wrap;html=1;fontSize=10;" parent="1" vertex="1">
          <mxGeometry x="160" y="200" width="120" height="60" as="geometry" />
        </mxCell>
        <mxCell id="f_ZjguVdzdU-RNICKI7y-2" value="Mô hình hoá các yêu cầu&lt;br&gt;600.000 VNĐ" style="rounded=0;whiteSpace=wrap;html=1;fontSize=10;" parent="1" vertex="1">
          <mxGeometry x="160" y="280" width="120" height="60" as="geometry" />
        </mxCell>
        <mxCell id="f_ZjguVdzdU-RNICKI7y-4" value="Thiết kế kiến trúc&lt;br&gt;1.200.000 VNĐ" style="rounded=0;whiteSpace=wrap;html=1;fontSize=10;" parent="1" vertex="1">
          <mxGeometry x="310" y="200" width="120" height="60" as="geometry" />
        </mxCell>
        <mxCell id="f_ZjguVdzdU-RNICKI7y-5" value="Thiết kế giao diện&lt;br&gt;2.400.000 VNĐ" style="rounded=0;whiteSpace=wrap;html=1;fontSize=10;" parent="1" vertex="1">
          <mxGeometry x="310" y="280" width="120" height="60" as="geometry" />
        </mxCell>
        <mxCell id="f_ZjguVdzdU-RNICKI7y-6" value="Thiết kế cơ sở dữ liệu&lt;br&gt;2.400.000 VNĐ" style="rounded=0;whiteSpace=wrap;html=1;fontSize=10;" parent="1" vertex="1">
          <mxGeometry x="310" y="360" width="120" height="60" as="geometry" />
        </mxCell>
        <mxCell id="f_ZjguVdzdU-RNICKI7y-9" value="&lt;span style=&quot;background-color: initial; font-size: 10px;&quot;&gt;Xây dựng cơ sở dữ liệu&lt;br&gt;&lt;/span&gt;600.000 VNĐ&lt;br style=&quot;font-size: 10px;&quot;&gt;&lt;p style=&quot;margin-left: 1in; font-size: 10px;&quot; class=&quot;MsoNormal&quot;&gt;&lt;/p&gt;&lt;p style=&quot;margin-left: 1in; font-size: 10px;&quot; class=&quot;MsoNormal&quot;&gt;&lt;/p&gt;" style="rounded=0;whiteSpace=wrap;html=1;fontSize=10;" parent="1" vertex="1">
          <mxGeometry x="460" y="200" width="120" height="60" as="geometry" />
        </mxCell>
        <mxCell id="f_ZjguVdzdU-RNICKI7y-10" value="&lt;span style=&quot;background-color: initial; font-size: 10px;&quot;&gt;Xây dựng giao diện chính&lt;br&gt;&lt;/span&gt;&lt;br style=&quot;font-size: 10px;&quot;&gt;&lt;p style=&quot;margin-left: 1in; font-size: 10px;&quot; class=&quot;MsoNormal&quot;&gt;&lt;/p&gt;&lt;p style=&quot;margin-left: 1in; font-size: 10px;&quot; class=&quot;MsoNormal&quot;&gt;&lt;/p&gt;" style="rounded=0;whiteSpace=wrap;html=1;fontSize=10;" parent="1" vertex="1">
          <mxGeometry x="460" y="280" width="120" height="60" as="geometry" />
        </mxCell>
        <mxCell id="f_ZjguVdzdU-RNICKI7y-11" value="&lt;span style=&quot;background-color: initial; font-size: 10px;&quot;&gt;Xây dựng giao diện&amp;nbsp;&lt;/span&gt;&lt;br style=&quot;font-size: 10px;&quot;&gt;&lt;p style=&quot;margin-left: 1in; font-size: 10px;&quot; class=&quot;MsoNormal&quot;&gt;&lt;/p&gt;&lt;p style=&quot;margin-left: 1in; font-size: 10px;&quot; class=&quot;MsoNormal&quot;&gt;&lt;/p&gt;" style="rounded=0;whiteSpace=wrap;html=1;fontSize=10;" parent="1" vertex="1">
          <mxGeometry x="460" y="360" width="120" height="60" as="geometry" />
        </mxCell>
        <mxCell id="f_ZjguVdzdU-RNICKI7y-12" value="&lt;span style=&quot;background-color: initial; font-size: 10px;&quot;&gt;Module đặt phòng trực tuyến&amp;nbsp;&lt;/span&gt;&lt;br style=&quot;font-size: 10px;&quot;&gt;&lt;p style=&quot;margin-left: 1in; font-size: 10px;&quot; class=&quot;MsoNormal&quot;&gt;&lt;/p&gt;&lt;p style=&quot;margin-left: 1in; font-size: 10px;&quot; class=&quot;MsoNormal&quot;&gt;&lt;/p&gt;" style="rounded=0;whiteSpace=wrap;html=1;fontSize=10;" parent="1" vertex="1">
          <mxGeometry x="460" y="440" width="120" height="60" as="geometry" />
        </mxCell>
        <mxCell id="f_ZjguVdzdU-RNICKI7y-13" value="&lt;span style=&quot;background-color: initial; font-size: 10px;&quot;&gt;Module quản lý đặt phòng&lt;/span&gt;&lt;br style=&quot;font-size: 10px;&quot;&gt;&lt;p style=&quot;margin-left: 1in; font-size: 10px;&quot; class=&quot;MsoNormal&quot;&gt;&lt;/p&gt;&lt;p style=&quot;margin-left: 1in; font-size: 10px;&quot; class=&quot;MsoNormal&quot;&gt;&lt;/p&gt;" style="rounded=0;whiteSpace=wrap;html=1;fontSize=10;" parent="1" vertex="1">
          <mxGeometry x="460" y="520" width="120" height="60" as="geometry" />
        </mxCell>
        <mxCell id="f_ZjguVdzdU-RNICKI7y-14" value="&lt;span style=&quot;background-color: initial; font-size: 10px;&quot;&gt;Module quản lý thông tin cá nhân&amp;nbsp;&lt;/span&gt;&lt;br style=&quot;font-size: 10px;&quot;&gt;&lt;p style=&quot;margin-left: 1in; font-size: 10px;&quot; class=&quot;MsoNormal&quot;&gt;&lt;/p&gt;&lt;p style=&quot;margin-left: 1in; font-size: 10px;&quot; class=&quot;MsoNormal&quot;&gt;&lt;/p&gt;" style="rounded=0;whiteSpace=wrap;html=1;fontSize=10;" parent="1" vertex="1">
          <mxGeometry x="460" y="600" width="120" height="60" as="geometry" />
        </mxCell>
        <mxCell id="f_ZjguVdzdU-RNICKI7y-15" value="&lt;span style=&quot;background-color: initial; font-size: 10px;&quot;&gt;Module tiện ích và dịch vụ&lt;/span&gt;&lt;span style=&quot;background-color: initial; font-size: 10px;&quot;&gt;&lt;br style=&quot;font-size: 10px;&quot;&gt;&lt;/span&gt;&lt;p style=&quot;margin-left: 1in; font-size: 10px;&quot; class=&quot;MsoNormal&quot;&gt;&lt;/p&gt;&lt;p style=&quot;margin-left: 1in; font-size: 10px;&quot; class=&quot;MsoNormal&quot;&gt;&lt;/p&gt;&lt;p style=&quot;margin-left: 1in; font-size: 10px;&quot; class=&quot;MsoNormal&quot;&gt;&lt;/p&gt;" style="rounded=0;whiteSpace=wrap;html=1;fontSize=10;" parent="1" vertex="1">
          <mxGeometry x="460" y="680" width="120" height="60" as="geometry" />
        </mxCell>
        <mxCell id="f_ZjguVdzdU-RNICKI7y-16" value="Module đăng&lt;span style=&quot;line-height: 150%; font-size: 10px;&quot;&gt;&lt;br style=&quot;font-size: 10px;&quot;&gt;&lt;span style=&quot;font-size: 10px;&quot; lang=&quot;VI&quot;&gt;ký tài khoản&lt;/span&gt;&lt;/span&gt;&lt;br style=&quot;font-size: 10px;&quot;&gt;&lt;p style=&quot;margin-left: 1in; font-size: 10px;&quot; class=&quot;MsoNormal&quot;&gt;&lt;/p&gt;&lt;p style=&quot;margin-left: 1in; font-size: 10px;&quot; class=&quot;MsoNormal&quot;&gt;&lt;/p&gt;" style="rounded=0;whiteSpace=wrap;html=1;fontSize=10;" parent="1" vertex="1">
          <mxGeometry x="460" y="760" width="120" height="60" as="geometry" />
        </mxCell>
        <mxCell id="f_ZjguVdzdU-RNICKI7y-17" value="&lt;span style=&quot;background-color: initial; font-size: 10px;&quot;&gt;Module hỗ trợ khách hàng&lt;/span&gt;&lt;span style=&quot;background-color: initial; font-size: 10px;&quot;&gt;&lt;br style=&quot;font-size: 10px;&quot;&gt;&lt;/span&gt;&lt;p style=&quot;margin-left: 1in; font-size: 10px;&quot; class=&quot;MsoNormal&quot;&gt;&lt;/p&gt;&lt;p style=&quot;margin-left: 1in; font-size: 10px;&quot; class=&quot;MsoNormal&quot;&gt;&lt;/p&gt;&lt;p style=&quot;margin-left: 1in; font-size: 10px;&quot; class=&quot;MsoNormal&quot;&gt;&lt;/p&gt;" style="rounded=0;whiteSpace=wrap;html=1;fontSize=10;" parent="1" vertex="1">
          <mxGeometry x="460" y="840" width="120" height="60" as="geometry" />
        </mxCell>
        <mxCell id="f_ZjguVdzdU-RNICKI7y-18" value="Module báo&lt;span style=&quot;background-color: initial; font-size: 10px;&quot;&gt; &lt;/span&gt;&lt;span style=&quot;background-color: initial; font-size: 10px;&quot; lang=&quot;VI&quot;&gt;cáo và thống kê&lt;/span&gt;&lt;p style=&quot;margin-left: 1in; font-size: 10px;&quot; class=&quot;MsoNormal&quot;&gt;&lt;span lang=&quot;VI&quot; style=&quot;font-size: 10px;&quot;&gt;&lt;/span&gt;&lt;/p&gt;&lt;p style=&quot;margin-left: 1in; font-size: 10px;&quot; class=&quot;MsoNormal&quot;&gt;&lt;/p&gt;&lt;p style=&quot;margin-left: 1in; font-size: 10px;&quot; class=&quot;MsoNormal&quot;&gt;&lt;/p&gt;" style="rounded=0;whiteSpace=wrap;html=1;fontSize=10;" parent="1" vertex="1">
          <mxGeometry x="460" y="920" width="120" height="60" as="geometry" />
        </mxCell>
        <mxCell id="f_ZjguVdzdU-RNICKI7y-20" value="&lt;span style=&quot;background-color: initial; font-size: 10px;&quot;&gt;&amp;nbsp;Kiểm thử chức năng&lt;/span&gt;&lt;br style=&quot;font-size: 10px;&quot;&gt;&lt;p style=&quot;margin-left: 1in; font-size: 10px;&quot; class=&quot;MsoNormal&quot;&gt;&lt;/p&gt;&lt;p style=&quot;margin-left: 1in; font-size: 10px;&quot; class=&quot;MsoNormal&quot;&gt;&lt;/p&gt;" style="rounded=0;whiteSpace=wrap;html=1;fontSize=10;" parent="1" vertex="1">
          <mxGeometry x="610" y="200" width="120" height="60" as="geometry" />
        </mxCell>
        <mxCell id="f_ZjguVdzdU-RNICKI7y-21" value="&lt;span style=&quot;background-color: initial; font-size: 10px;&quot;&gt;&amp;nbsp;Kiểm thử giao diện&lt;/span&gt;&lt;span style=&quot;background-color: initial; font-size: 10px;&quot;&gt;&lt;br style=&quot;font-size: 10px;&quot;&gt;&lt;/span&gt;&lt;p style=&quot;margin-left: 1in; font-size: 10px;&quot; class=&quot;MsoNormal&quot;&gt;&lt;/p&gt;&lt;p style=&quot;margin-left: 1in; font-size: 10px;&quot; class=&quot;MsoNormal&quot;&gt;&lt;/p&gt;&lt;p style=&quot;margin-left: 1in; font-size: 10px;&quot; class=&quot;MsoNormal&quot;&gt;&lt;/p&gt;" style="rounded=0;whiteSpace=wrap;html=1;fontSize=10;" parent="1" vertex="1">
          <mxGeometry x="610" y="280" width="120" height="60" as="geometry" />
        </mxCell>
        <mxCell id="f_ZjguVdzdU-RNICKI7y-22" value="&lt;span style=&quot;background-color: initial; font-size: 10px;&quot;&gt;Kiểm thử hiệu suất&lt;/span&gt;&lt;br style=&quot;font-size: 10px;&quot;&gt;&lt;p style=&quot;margin-left: 1in; font-size: 10px;&quot; class=&quot;MsoNormal&quot;&gt;&lt;/p&gt;&lt;p style=&quot;margin-left: 1in; font-size: 10px;&quot; class=&quot;MsoNormal&quot;&gt;&lt;/p&gt;&lt;p style=&quot;margin-left: 1in; font-size: 10px;&quot; class=&quot;MsoNormal&quot;&gt;&lt;/p&gt;" style="rounded=0;whiteSpace=wrap;html=1;fontSize=10;" parent="1" vertex="1">
          <mxGeometry x="610" y="360" width="120" height="60" as="geometry" />
        </mxCell>
        <mxCell id="f_ZjguVdzdU-RNICKI7y-23" value="Kiểm thử bảo&lt;span style=&quot;background-color: initial; font-size: 10px;&quot;&gt; &lt;/span&gt;&lt;span style=&quot;background-color: initial; font-size: 10px;&quot; lang=&quot;VI&quot;&gt;mật&lt;/span&gt;&lt;p style=&quot;margin-left: 1in; font-size: 10px;&quot; class=&quot;MsoNormal&quot;&gt;&lt;span lang=&quot;VI&quot; style=&quot;font-size: 10px;&quot;&gt;&lt;/span&gt;&lt;/p&gt;&lt;p style=&quot;margin-left: 1in; font-size: 10px;&quot; class=&quot;MsoNormal&quot;&gt;&lt;/p&gt;&lt;p style=&quot;margin-left: 1in; font-size: 10px;&quot; class=&quot;MsoNormal&quot;&gt;&lt;/p&gt;" style="rounded=0;whiteSpace=wrap;html=1;fontSize=10;" parent="1" vertex="1">
          <mxGeometry x="610" y="440" width="120" height="60" as="geometry" />
        </mxCell>
        <mxCell id="f_ZjguVdzdU-RNICKI7y-24" value="&lt;span style=&quot;background-color: initial; font-size: 10px;&quot;&gt;&amp;nbsp;Bảo trì&lt;/span&gt;&lt;br style=&quot;font-size: 10px;&quot;&gt;&lt;p style=&quot;margin-left: 1in; font-size: 10px;&quot; class=&quot;MsoNormal&quot;&gt;&lt;/p&gt;&lt;p style=&quot;margin-left: 1in; font-size: 10px;&quot; class=&quot;MsoNormal&quot;&gt;&lt;span lang=&quot;VI&quot; style=&quot;font-size: 10px;&quot;&gt;&lt;/span&gt;&lt;/p&gt;&lt;p style=&quot;margin-left: 1in; font-size: 10px;&quot; class=&quot;MsoNormal&quot;&gt;&lt;/p&gt;&lt;p style=&quot;margin-left: 1in; font-size: 10px;&quot; class=&quot;MsoNormal&quot;&gt;&lt;/p&gt;" style="rounded=0;whiteSpace=wrap;html=1;fontSize=10;" parent="1" vertex="1">
          <mxGeometry x="610" y="520" width="120" height="60" as="geometry" />
        </mxCell>
        <mxCell id="f_ZjguVdzdU-RNICKI7y-25" value="&lt;span style=&quot;background-color: initial; font-size: 10px;&quot;&gt;&amp;nbsp;Ghi nhận và báo cáo&lt;/span&gt;&lt;br style=&quot;font-size: 10px;&quot;&gt;&lt;p style=&quot;margin-left: 1in; font-size: 10px;&quot; class=&quot;MsoNormal&quot;&gt;&lt;/p&gt;&lt;p style=&quot;margin-left: 1in; font-size: 10px;&quot; class=&quot;MsoNormal&quot;&gt;&lt;span lang=&quot;VI&quot; style=&quot;font-size: 10px;&quot;&gt;&lt;/span&gt;&lt;/p&gt;&lt;p style=&quot;margin-left: 1in; font-size: 10px;&quot; class=&quot;MsoNormal&quot;&gt;&lt;/p&gt;&lt;p style=&quot;margin-left: 1in; font-size: 10px;&quot; class=&quot;MsoNormal&quot;&gt;&lt;/p&gt;" style="rounded=0;whiteSpace=wrap;html=1;fontSize=10;" parent="1" vertex="1">
          <mxGeometry x="610" y="600" width="120" height="60" as="geometry" />
        </mxCell>
        <mxCell id="f_ZjguVdzdU-RNICKI7y-26" value="&lt;span style=&quot;background-color: initial; font-size: 10px;&quot;&gt;&amp;nbsp;Đóng gói và triển khai&lt;/span&gt;&lt;br style=&quot;font-size: 10px;&quot;&gt;&lt;p style=&quot;margin-left: 1in; font-size: 10px;&quot; class=&quot;MsoNormal&quot;&gt;&lt;/p&gt;&lt;p style=&quot;margin-left: 1in; font-size: 10px;&quot; class=&quot;MsoNormal&quot;&gt;&lt;/p&gt;" style="rounded=0;whiteSpace=wrap;html=1;fontSize=10;" parent="1" vertex="1">
          <mxGeometry x="760" y="200" width="120" height="60" as="geometry" />
        </mxCell>
        <mxCell id="f_ZjguVdzdU-RNICKI7y-27" value="&lt;span style=&quot;background-color: initial; font-size: 10px;&quot;&gt;&amp;nbsp;Kiểm thử và chấp nhận&lt;/span&gt;&lt;br style=&quot;font-size: 10px;&quot;&gt;&lt;p style=&quot;margin-left: 1in; font-size: 10px;&quot; class=&quot;MsoNormal&quot;&gt;&lt;/p&gt;&lt;p style=&quot;margin-left: 1in; font-size: 10px;&quot; class=&quot;MsoNormal&quot;&gt;&lt;/p&gt;&lt;p style=&quot;margin-left: 1in; font-size: 10px;&quot; class=&quot;MsoNormal&quot;&gt;&lt;/p&gt;" style="rounded=0;whiteSpace=wrap;html=1;fontSize=10;" parent="1" vertex="1">
          <mxGeometry x="760" y="280" width="120" height="60" as="geometry" />
        </mxCell>
        <mxCell id="f_ZjguVdzdU-RNICKI7y-28" value="&lt;span style=&quot;background-color: initial; font-size: 10px;&quot;&gt;&amp;nbsp;Xây dựng tài liệu&lt;/span&gt;&lt;br style=&quot;font-size: 10px;&quot;&gt;&lt;p style=&quot;margin-left: 1in; font-size: 10px;&quot; class=&quot;MsoNormal&quot;&gt;&lt;/p&gt;&lt;p style=&quot;margin-left: 1in; font-size: 10px;&quot; class=&quot;MsoNormal&quot;&gt;&lt;/p&gt;&lt;p style=&quot;margin-left: 1in; font-size: 10px;&quot; class=&quot;MsoNormal&quot;&gt;&lt;/p&gt;" style="rounded=0;whiteSpace=wrap;html=1;fontSize=10;" parent="1" vertex="1">
          <mxGeometry x="760" y="360" width="120" height="60" as="geometry" />
        </mxCell>
        <mxCell id="f_ZjguVdzdU-RNICKI7y-29" value="&lt;span style=&quot;background-color: initial; font-size: 10px;&quot;&gt;Chuyển giao và báo&lt;br style=&quot;font-size: 10px;&quot;&gt;cáo&lt;/span&gt;&lt;br style=&quot;font-size: 10px;&quot;&gt;&lt;p style=&quot;margin-left: 1in; font-size: 10px;&quot; class=&quot;MsoNormal&quot;&gt;&lt;/p&gt;&lt;p style=&quot;margin-left: 1in; font-size: 10px;&quot; class=&quot;MsoNormal&quot;&gt;&lt;/p&gt;&lt;p style=&quot;margin-left: 1in; font-size: 10px;&quot; class=&quot;MsoNormal&quot;&gt;&lt;/p&gt;&lt;p style=&quot;margin-left: 1in; font-size: 10px;&quot; class=&quot;MsoNormal&quot;&gt;&lt;/p&gt;" style="rounded=0;whiteSpace=wrap;html=1;fontSize=10;" parent="1" vertex="1">
          <mxGeometry x="760" y="440" width="120" height="60" as="geometry" />
        </mxCell>
        <mxCell id="f_ZjguVdzdU-RNICKI7y-31" value="" style="endArrow=none;html=1;rounded=0;entryX=0.5;entryY=1;entryDx=0;entryDy=0;fontSize=10;" parent="1" target="IUzK1FNPa1s5LJcssFMt-1" edge="1">
          <mxGeometry width="50" height="50" relative="1" as="geometry">
            <mxPoint x="450" y="100" as="sourcePoint" />
            <mxPoint x="475" y="80" as="targetPoint" />
          </mxGeometry>
        </mxCell>
        <mxCell id="f_ZjguVdzdU-RNICKI7y-32" value="" style="endArrow=none;html=1;rounded=0;fontSize=10;" parent="1" edge="1">
          <mxGeometry width="50" height="50" relative="1" as="geometry">
            <mxPoint x="70" y="100" as="sourcePoint" />
            <mxPoint x="450" y="100" as="targetPoint" />
          </mxGeometry>
        </mxCell>
        <mxCell id="f_ZjguVdzdU-RNICKI7y-33" value="" style="endArrow=none;html=1;rounded=0;exitX=0.5;exitY=0;exitDx=0;exitDy=0;fontSize=10;" parent="1" source="IUzK1FNPa1s5LJcssFMt-2" edge="1">
          <mxGeometry width="50" height="50" relative="1" as="geometry">
            <mxPoint x="130" y="160" as="sourcePoint" />
            <mxPoint x="70" y="100" as="targetPoint" />
          </mxGeometry>
        </mxCell>
        <mxCell id="f_ZjguVdzdU-RNICKI7y-34" value="" style="endArrow=none;html=1;rounded=0;exitX=0.5;exitY=0;exitDx=0;exitDy=0;fontSize=10;" parent="1" source="IUzK1FNPa1s5LJcssFMt-3" edge="1">
          <mxGeometry width="50" height="50" relative="1" as="geometry">
            <mxPoint x="80" y="130" as="sourcePoint" />
            <mxPoint x="220" y="100" as="targetPoint" />
            <Array as="points">
              <mxPoint x="220" y="110" />
            </Array>
          </mxGeometry>
        </mxCell>
        <mxCell id="f_ZjguVdzdU-RNICKI7y-38" value="" style="endArrow=none;html=1;rounded=0;exitX=0.5;exitY=1;exitDx=0;exitDy=0;entryX=0.5;entryY=0;entryDx=0;entryDy=0;fontSize=10;" parent="1" source="IUzK1FNPa1s5LJcssFMt-2" target="IUzK1FNPa1s5LJcssFMt-8" edge="1">
          <mxGeometry width="50" height="50" relative="1" as="geometry">
            <mxPoint x="80" y="130" as="sourcePoint" />
            <mxPoint x="80" y="110" as="targetPoint" />
          </mxGeometry>
        </mxCell>
        <mxCell id="f_ZjguVdzdU-RNICKI7y-39" value="" style="endArrow=none;html=1;rounded=0;exitX=0.5;exitY=0;exitDx=0;exitDy=0;fontSize=10;" parent="1" source="IUzK1FNPa1s5LJcssFMt-10" edge="1">
          <mxGeometry width="50" height="50" relative="1" as="geometry">
            <mxPoint x="130" y="280" as="sourcePoint" />
            <mxPoint x="70" y="190" as="targetPoint" />
            <Array as="points">
              <mxPoint x="70" y="350" />
              <mxPoint y="350" />
              <mxPoint y="230" />
              <mxPoint y="190" />
            </Array>
          </mxGeometry>
        </mxCell>
        <mxCell id="f_ZjguVdzdU-RNICKI7y-40" value="" style="endArrow=none;html=1;rounded=0;exitX=0.5;exitY=0;exitDx=0;exitDy=0;fontSize=10;" parent="1" source="IUzK1FNPa1s5LJcssFMt-9" edge="1">
          <mxGeometry width="50" height="50" relative="1" as="geometry">
            <mxPoint x="130" y="280" as="sourcePoint" />
            <mxPoint y="270" as="targetPoint" />
            <Array as="points">
              <mxPoint x="70" y="270" />
            </Array>
          </mxGeometry>
        </mxCell>
        <mxCell id="f_ZjguVdzdU-RNICKI7y-43" value="" style="endArrow=none;html=1;rounded=0;entryX=0;entryY=0.5;entryDx=0;entryDy=0;exitX=0;exitY=0.5;exitDx=0;exitDy=0;fontSize=10;" parent="1" source="f_ZjguVdzdU-RNICKI7y-2" target="IUzK1FNPa1s5LJcssFMt-3" edge="1">
          <mxGeometry width="50" height="50" relative="1" as="geometry">
            <mxPoint x="130" y="280" as="sourcePoint" />
            <mxPoint x="180" y="230" as="targetPoint" />
            <Array as="points">
              <mxPoint x="150" y="310" />
              <mxPoint x="150" y="220" />
              <mxPoint x="150" y="150" />
            </Array>
          </mxGeometry>
        </mxCell>
        <mxCell id="f_ZjguVdzdU-RNICKI7y-44" value="" style="endArrow=none;html=1;rounded=0;entryX=0.5;entryY=0;entryDx=0;entryDy=0;fontSize=10;" parent="1" target="f_ZjguVdzdU-RNICKI7y-1" edge="1">
          <mxGeometry width="50" height="50" relative="1" as="geometry">
            <mxPoint x="150" y="190" as="sourcePoint" />
            <mxPoint x="180" y="230" as="targetPoint" />
            <Array as="points">
              <mxPoint x="220" y="190" />
            </Array>
          </mxGeometry>
        </mxCell>
        <mxCell id="f_ZjguVdzdU-RNICKI7y-46" value="" style="endArrow=none;html=1;rounded=0;entryX=0.5;entryY=0;entryDx=0;entryDy=0;fontSize=10;" parent="1" target="IUzK1FNPa1s5LJcssFMt-7" edge="1">
          <mxGeometry width="50" height="50" relative="1" as="geometry">
            <mxPoint x="450" y="100" as="sourcePoint" />
            <mxPoint x="830" y="100" as="targetPoint" />
            <Array as="points">
              <mxPoint x="820" y="100" />
            </Array>
          </mxGeometry>
        </mxCell>
        <mxCell id="f_ZjguVdzdU-RNICKI7y-47" value="" style="endArrow=none;html=1;rounded=0;exitX=0.5;exitY=0;exitDx=0;exitDy=0;fontSize=10;" parent="1" source="IUzK1FNPa1s5LJcssFMt-4" edge="1">
          <mxGeometry width="50" height="50" relative="1" as="geometry">
            <mxPoint x="500" y="320" as="sourcePoint" />
            <mxPoint x="370" y="100" as="targetPoint" />
          </mxGeometry>
        </mxCell>
        <mxCell id="f_ZjguVdzdU-RNICKI7y-48" value="" style="endArrow=none;html=1;rounded=0;exitX=0.5;exitY=0;exitDx=0;exitDy=0;fontSize=10;" parent="1" source="IUzK1FNPa1s5LJcssFMt-5" edge="1">
          <mxGeometry width="50" height="50" relative="1" as="geometry">
            <mxPoint x="480" y="210" as="sourcePoint" />
            <mxPoint x="520" y="100" as="targetPoint" />
          </mxGeometry>
        </mxCell>
        <mxCell id="f_ZjguVdzdU-RNICKI7y-49" value="" style="endArrow=none;html=1;rounded=0;fontSize=10;" parent="1" source="IUzK1FNPa1s5LJcssFMt-6" edge="1">
          <mxGeometry width="50" height="50" relative="1" as="geometry">
            <mxPoint x="480" y="210" as="sourcePoint" />
            <mxPoint x="670" y="100" as="targetPoint" />
          </mxGeometry>
        </mxCell>
        <mxCell id="f_ZjguVdzdU-RNICKI7y-50" value="" style="endArrow=none;html=1;rounded=0;entryX=0;entryY=0.5;entryDx=0;entryDy=0;exitX=0;exitY=0.5;exitDx=0;exitDy=0;fontSize=10;" parent="1" source="f_ZjguVdzdU-RNICKI7y-6" target="IUzK1FNPa1s5LJcssFMt-4" edge="1">
          <mxGeometry width="50" height="50" relative="1" as="geometry">
            <mxPoint x="310" y="470" as="sourcePoint" />
            <mxPoint x="300" y="140" as="targetPoint" />
            <Array as="points">
              <mxPoint x="300" y="390" />
              <mxPoint x="300" y="150" />
            </Array>
          </mxGeometry>
        </mxCell>
        <mxCell id="f_ZjguVdzdU-RNICKI7y-51" value="" style="endArrow=none;html=1;rounded=0;entryX=0.5;entryY=0;entryDx=0;entryDy=0;fontSize=10;" parent="1" target="f_ZjguVdzdU-RNICKI7y-4" edge="1">
          <mxGeometry width="50" height="50" relative="1" as="geometry">
            <mxPoint x="300" y="190" as="sourcePoint" />
            <mxPoint x="410" y="210" as="targetPoint" />
            <Array as="points">
              <mxPoint x="370" y="190" />
            </Array>
          </mxGeometry>
        </mxCell>
        <mxCell id="f_ZjguVdzdU-RNICKI7y-52" value="" style="endArrow=none;html=1;rounded=0;entryX=0.5;entryY=0;entryDx=0;entryDy=0;fontSize=10;" parent="1" target="f_ZjguVdzdU-RNICKI7y-5" edge="1">
          <mxGeometry width="50" height="50" relative="1" as="geometry">
            <mxPoint x="300" y="270" as="sourcePoint" />
            <mxPoint x="410" y="210" as="targetPoint" />
            <Array as="points">
              <mxPoint x="370" y="270" />
            </Array>
          </mxGeometry>
        </mxCell>
        <mxCell id="f_ZjguVdzdU-RNICKI7y-54" value="" style="endArrow=none;html=1;rounded=0;entryX=0;entryY=0.5;entryDx=0;entryDy=0;exitX=0;exitY=0.5;exitDx=0;exitDy=0;fontSize=10;" parent="1" source="f_ZjguVdzdU-RNICKI7y-18" target="IUzK1FNPa1s5LJcssFMt-5" edge="1">
          <mxGeometry width="50" height="50" relative="1" as="geometry">
            <mxPoint x="360" y="260" as="sourcePoint" />
            <mxPoint x="410" y="210" as="targetPoint" />
            <Array as="points">
              <mxPoint x="450" y="950" />
              <mxPoint x="450" y="550" />
              <mxPoint x="450" y="150" />
            </Array>
          </mxGeometry>
        </mxCell>
        <mxCell id="f_ZjguVdzdU-RNICKI7y-55" value="" style="endArrow=none;html=1;rounded=0;exitX=0.5;exitY=0;exitDx=0;exitDy=0;fontSize=10;" parent="1" source="f_ZjguVdzdU-RNICKI7y-9" edge="1">
          <mxGeometry width="50" height="50" relative="1" as="geometry">
            <mxPoint x="360" y="260" as="sourcePoint" />
            <mxPoint x="450" y="190" as="targetPoint" />
            <Array as="points">
              <mxPoint x="520" y="190" />
            </Array>
          </mxGeometry>
        </mxCell>
        <mxCell id="f_ZjguVdzdU-RNICKI7y-56" value="" style="endArrow=none;html=1;rounded=0;exitX=0.5;exitY=0;exitDx=0;exitDy=0;fontSize=10;" parent="1" source="f_ZjguVdzdU-RNICKI7y-10" edge="1">
          <mxGeometry width="50" height="50" relative="1" as="geometry">
            <mxPoint x="360" y="310" as="sourcePoint" />
            <mxPoint x="450" y="270" as="targetPoint" />
            <Array as="points">
              <mxPoint x="520" y="270" />
            </Array>
          </mxGeometry>
        </mxCell>
        <mxCell id="f_ZjguVdzdU-RNICKI7y-57" value="" style="endArrow=none;html=1;rounded=0;exitX=0.5;exitY=0;exitDx=0;exitDy=0;fontSize=10;" parent="1" source="f_ZjguVdzdU-RNICKI7y-11" edge="1">
          <mxGeometry width="50" height="50" relative="1" as="geometry">
            <mxPoint x="360" y="420" as="sourcePoint" />
            <mxPoint x="450" y="350" as="targetPoint" />
            <Array as="points">
              <mxPoint x="520" y="350" />
            </Array>
          </mxGeometry>
        </mxCell>
        <mxCell id="f_ZjguVdzdU-RNICKI7y-58" value="" style="endArrow=none;html=1;rounded=0;exitX=0.5;exitY=0;exitDx=0;exitDy=0;fontSize=10;" parent="1" source="f_ZjguVdzdU-RNICKI7y-12" edge="1">
          <mxGeometry width="50" height="50" relative="1" as="geometry">
            <mxPoint x="360" y="520" as="sourcePoint" />
            <mxPoint x="450" y="430" as="targetPoint" />
            <Array as="points">
              <mxPoint x="520" y="430" />
            </Array>
          </mxGeometry>
        </mxCell>
        <mxCell id="f_ZjguVdzdU-RNICKI7y-59" value="" style="endArrow=none;html=1;rounded=0;exitX=0.5;exitY=0;exitDx=0;exitDy=0;fontSize=10;" parent="1" source="f_ZjguVdzdU-RNICKI7y-13" edge="1">
          <mxGeometry width="50" height="50" relative="1" as="geometry">
            <mxPoint x="360" y="570" as="sourcePoint" />
            <mxPoint x="450" y="510" as="targetPoint" />
            <Array as="points">
              <mxPoint x="520" y="510" />
            </Array>
          </mxGeometry>
        </mxCell>
        <mxCell id="f_ZjguVdzdU-RNICKI7y-60" value="" style="endArrow=none;html=1;rounded=0;exitX=0.5;exitY=0;exitDx=0;exitDy=0;fontSize=10;" parent="1" source="f_ZjguVdzdU-RNICKI7y-14" edge="1">
          <mxGeometry width="50" height="50" relative="1" as="geometry">
            <mxPoint x="360" y="670" as="sourcePoint" />
            <mxPoint x="450" y="590" as="targetPoint" />
            <Array as="points">
              <mxPoint x="520" y="590" />
            </Array>
          </mxGeometry>
        </mxCell>
        <mxCell id="f_ZjguVdzdU-RNICKI7y-61" value="" style="endArrow=none;html=1;rounded=0;exitX=0.5;exitY=0;exitDx=0;exitDy=0;fontSize=10;" parent="1" source="f_ZjguVdzdU-RNICKI7y-15" edge="1">
          <mxGeometry width="50" height="50" relative="1" as="geometry">
            <mxPoint x="360" y="720" as="sourcePoint" />
            <mxPoint x="450" y="670" as="targetPoint" />
            <Array as="points">
              <mxPoint x="520" y="670" />
            </Array>
          </mxGeometry>
        </mxCell>
        <mxCell id="f_ZjguVdzdU-RNICKI7y-62" value="" style="endArrow=none;html=1;rounded=0;exitX=0.5;exitY=0;exitDx=0;exitDy=0;fontSize=10;" parent="1" source="f_ZjguVdzdU-RNICKI7y-16" edge="1">
          <mxGeometry width="50" height="50" relative="1" as="geometry">
            <mxPoint x="360" y="830" as="sourcePoint" />
            <mxPoint x="450" y="750" as="targetPoint" />
            <Array as="points">
              <mxPoint x="520" y="750" />
            </Array>
          </mxGeometry>
        </mxCell>
        <mxCell id="f_ZjguVdzdU-RNICKI7y-63" value="" style="endArrow=none;html=1;rounded=0;exitX=0.5;exitY=0;exitDx=0;exitDy=0;fontSize=10;" parent="1" source="f_ZjguVdzdU-RNICKI7y-17" edge="1">
          <mxGeometry width="50" height="50" relative="1" as="geometry">
            <mxPoint x="360" y="880" as="sourcePoint" />
            <mxPoint x="450" y="830" as="targetPoint" />
            <Array as="points">
              <mxPoint x="520" y="830" />
            </Array>
          </mxGeometry>
        </mxCell>
        <mxCell id="f_ZjguVdzdU-RNICKI7y-64" value="" style="endArrow=none;html=1;rounded=0;entryX=0;entryY=0.5;entryDx=0;entryDy=0;exitX=0;exitY=0.5;exitDx=0;exitDy=0;fontSize=10;" parent="1" source="f_ZjguVdzdU-RNICKI7y-25" target="IUzK1FNPa1s5LJcssFMt-6" edge="1">
          <mxGeometry width="50" height="50" relative="1" as="geometry">
            <mxPoint x="590" y="250" as="sourcePoint" />
            <mxPoint x="660" y="210" as="targetPoint" />
            <Array as="points">
              <mxPoint x="600" y="630" />
              <mxPoint x="600" y="570" />
              <mxPoint x="600" y="150" />
            </Array>
          </mxGeometry>
        </mxCell>
        <mxCell id="f_ZjguVdzdU-RNICKI7y-65" value="" style="endArrow=none;html=1;rounded=0;entryX=0.5;entryY=0;entryDx=0;entryDy=0;fontSize=10;" parent="1" target="f_ZjguVdzdU-RNICKI7y-20" edge="1">
          <mxGeometry width="50" height="50" relative="1" as="geometry">
            <mxPoint x="600" y="190" as="sourcePoint" />
            <mxPoint x="660" y="210" as="targetPoint" />
            <Array as="points">
              <mxPoint x="670" y="190" />
            </Array>
          </mxGeometry>
        </mxCell>
        <mxCell id="f_ZjguVdzdU-RNICKI7y-66" value="" style="endArrow=none;html=1;rounded=0;entryX=0.5;entryY=0;entryDx=0;entryDy=0;fontSize=10;" parent="1" target="f_ZjguVdzdU-RNICKI7y-21" edge="1">
          <mxGeometry width="50" height="50" relative="1" as="geometry">
            <mxPoint x="600" y="270" as="sourcePoint" />
            <mxPoint x="660" y="200" as="targetPoint" />
            <Array as="points">
              <mxPoint x="670" y="270" />
            </Array>
          </mxGeometry>
        </mxCell>
        <mxCell id="f_ZjguVdzdU-RNICKI7y-67" value="" style="endArrow=none;html=1;rounded=0;entryX=0.5;entryY=0;entryDx=0;entryDy=0;fontSize=10;" parent="1" target="f_ZjguVdzdU-RNICKI7y-22" edge="1">
          <mxGeometry width="50" height="50" relative="1" as="geometry">
            <mxPoint x="600" y="350" as="sourcePoint" />
            <mxPoint x="660" y="350" as="targetPoint" />
            <Array as="points">
              <mxPoint x="670" y="350" />
            </Array>
          </mxGeometry>
        </mxCell>
        <mxCell id="f_ZjguVdzdU-RNICKI7y-68" value="" style="endArrow=none;html=1;rounded=0;entryX=0.5;entryY=0;entryDx=0;entryDy=0;fontSize=10;" parent="1" target="f_ZjguVdzdU-RNICKI7y-23" edge="1">
          <mxGeometry width="50" height="50" relative="1" as="geometry">
            <mxPoint x="600" y="430" as="sourcePoint" />
            <mxPoint x="660" y="510" as="targetPoint" />
            <Array as="points">
              <mxPoint x="670" y="430" />
            </Array>
          </mxGeometry>
        </mxCell>
        <mxCell id="f_ZjguVdzdU-RNICKI7y-69" value="" style="endArrow=none;html=1;rounded=0;entryX=0.531;entryY=-0.012;entryDx=0;entryDy=0;entryPerimeter=0;fontSize=10;" parent="1" target="f_ZjguVdzdU-RNICKI7y-24" edge="1">
          <mxGeometry width="50" height="50" relative="1" as="geometry">
            <mxPoint x="600" y="510" as="sourcePoint" />
            <mxPoint x="660" y="510" as="targetPoint" />
            <Array as="points">
              <mxPoint x="674" y="510" />
            </Array>
          </mxGeometry>
        </mxCell>
        <mxCell id="f_ZjguVdzdU-RNICKI7y-71" value="" style="endArrow=none;html=1;rounded=0;exitX=0;exitY=0.5;exitDx=0;exitDy=0;entryX=0;entryY=0.5;entryDx=0;entryDy=0;fontSize=10;" parent="1" source="f_ZjguVdzdU-RNICKI7y-29" target="IUzK1FNPa1s5LJcssFMt-7" edge="1">
          <mxGeometry width="50" height="50" relative="1" as="geometry">
            <mxPoint x="610" y="400" as="sourcePoint" />
            <mxPoint x="750" y="260" as="targetPoint" />
            <Array as="points">
              <mxPoint x="750" y="470" />
              <mxPoint x="750" y="150" />
            </Array>
          </mxGeometry>
        </mxCell>
        <mxCell id="f_ZjguVdzdU-RNICKI7y-72" value="" style="endArrow=none;html=1;rounded=0;exitX=0.5;exitY=0;exitDx=0;exitDy=0;fontSize=10;" parent="1" source="f_ZjguVdzdU-RNICKI7y-26" edge="1">
          <mxGeometry width="50" height="50" relative="1" as="geometry">
            <mxPoint x="610" y="250" as="sourcePoint" />
            <mxPoint x="750" y="190" as="targetPoint" />
            <Array as="points">
              <mxPoint x="820" y="190" />
            </Array>
          </mxGeometry>
        </mxCell>
        <mxCell id="f_ZjguVdzdU-RNICKI7y-73" value="" style="endArrow=none;html=1;rounded=0;exitX=0.5;exitY=0;exitDx=0;exitDy=0;fontSize=10;" parent="1" source="f_ZjguVdzdU-RNICKI7y-27" edge="1">
          <mxGeometry width="50" height="50" relative="1" as="geometry">
            <mxPoint x="610" y="300" as="sourcePoint" />
            <mxPoint x="750" y="270" as="targetPoint" />
            <Array as="points">
              <mxPoint x="820" y="270" />
            </Array>
          </mxGeometry>
        </mxCell>
        <mxCell id="f_ZjguVdzdU-RNICKI7y-74" value="" style="endArrow=none;html=1;rounded=0;exitX=0.5;exitY=0;exitDx=0;exitDy=0;fontSize=10;" parent="1" source="f_ZjguVdzdU-RNICKI7y-28" edge="1">
          <mxGeometry width="50" height="50" relative="1" as="geometry">
            <mxPoint x="610" y="450" as="sourcePoint" />
            <mxPoint x="750" y="350" as="targetPoint" />
            <Array as="points">
              <mxPoint x="820" y="350" />
            </Array>
          </mxGeometry>
        </mxCell>
        <mxCell id="f_ZjguVdzdU-RNICKI7y-75" value="1.0" style="text;html=1;strokeColor=none;fillColor=none;align=center;verticalAlign=middle;whiteSpace=wrap;rounded=0;" parent="1" vertex="1">
          <mxGeometry x="40" y="70" width="60" height="30" as="geometry" />
        </mxCell>
        <mxCell id="f_ZjguVdzdU-RNICKI7y-76" value="2.0" style="text;html=1;strokeColor=none;fillColor=none;align=center;verticalAlign=middle;whiteSpace=wrap;rounded=0;" parent="1" vertex="1">
          <mxGeometry x="190" y="70" width="60" height="30" as="geometry" />
        </mxCell>
        <mxCell id="f_ZjguVdzdU-RNICKI7y-77" value="3.0" style="text;html=1;strokeColor=none;fillColor=none;align=center;verticalAlign=middle;whiteSpace=wrap;rounded=0;" parent="1" vertex="1">
          <mxGeometry x="340" y="70" width="60" height="30" as="geometry" />
        </mxCell>
        <mxCell id="f_ZjguVdzdU-RNICKI7y-78" value="4.0" style="text;html=1;strokeColor=none;fillColor=none;align=center;verticalAlign=middle;whiteSpace=wrap;rounded=0;" parent="1" vertex="1">
          <mxGeometry x="491" y="70" width="60" height="30" as="geometry" />
        </mxCell>
        <mxCell id="f_ZjguVdzdU-RNICKI7y-79" value="5.0" style="text;html=1;strokeColor=none;fillColor=none;align=center;verticalAlign=middle;whiteSpace=wrap;rounded=0;" parent="1" vertex="1">
          <mxGeometry x="640" y="70" width="60" height="30" as="geometry" />
        </mxCell>
        <mxCell id="f_ZjguVdzdU-RNICKI7y-80" value="6.0" style="text;html=1;strokeColor=none;fillColor=none;align=center;verticalAlign=middle;whiteSpace=wrap;rounded=0;" parent="1" vertex="1">
          <mxGeometry x="790" y="70" width="60" height="30" as="geometry" />
        </mxCell>
        <mxCell id="f_ZjguVdzdU-RNICKI7y-81" value="&lt;font style=&quot;font-size: 7px;&quot;&gt;1.1&lt;/font&gt;" style="text;html=1;strokeColor=none;fillColor=none;align=center;verticalAlign=middle;whiteSpace=wrap;rounded=0;" parent="1" vertex="1">
          <mxGeometry x="110" y="180" width="30" height="20" as="geometry" />
        </mxCell>
        <mxCell id="f_ZjguVdzdU-RNICKI7y-82" value="&lt;font style=&quot;font-size: 7px;&quot;&gt;1.2&lt;/font&gt;" style="text;html=1;strokeColor=none;fillColor=none;align=center;verticalAlign=middle;whiteSpace=wrap;rounded=0;" parent="1" vertex="1">
          <mxGeometry x="110" y="260" width="30" height="20" as="geometry" />
        </mxCell>
        <mxCell id="f_ZjguVdzdU-RNICKI7y-83" value="&lt;font style=&quot;font-size: 7px;&quot;&gt;1.3&lt;/font&gt;" style="text;html=1;strokeColor=none;fillColor=none;align=center;verticalAlign=middle;whiteSpace=wrap;rounded=0;" parent="1" vertex="1">
          <mxGeometry x="110" y="340" width="30" height="20" as="geometry" />
        </mxCell>
        <mxCell id="KwnvREDpGYO3lFJgx3Yo-1" value="0.0" style="text;html=1;strokeColor=none;fillColor=none;align=center;verticalAlign=middle;whiteSpace=wrap;rounded=0;" parent="1" vertex="1">
          <mxGeometry x="420" y="-30" width="60" height="30" as="geometry" />
        </mxCell>
        <mxCell id="KwnvREDpGYO3lFJgx3Yo-2" value="&lt;font style=&quot;font-size: 7px;&quot;&gt;2.1&lt;/font&gt;" style="text;html=1;strokeColor=none;fillColor=none;align=center;verticalAlign=middle;whiteSpace=wrap;rounded=0;" parent="1" vertex="1">
          <mxGeometry x="260" y="180" width="30" height="20" as="geometry" />
        </mxCell>
        <mxCell id="KwnvREDpGYO3lFJgx3Yo-3" value="&lt;font style=&quot;font-size: 7px;&quot;&gt;2.2&lt;/font&gt;" style="text;html=1;strokeColor=none;fillColor=none;align=center;verticalAlign=middle;whiteSpace=wrap;rounded=0;" parent="1" vertex="1">
          <mxGeometry x="260" y="260" width="30" height="20" as="geometry" />
        </mxCell>
        <mxCell id="KwnvREDpGYO3lFJgx3Yo-4" value="&lt;font style=&quot;font-size: 7px;&quot;&gt;3.1&lt;/font&gt;" style="text;html=1;strokeColor=none;fillColor=none;align=center;verticalAlign=middle;whiteSpace=wrap;rounded=0;" parent="1" vertex="1">
          <mxGeometry x="410" y="180" width="30" height="20" as="geometry" />
        </mxCell>
        <mxCell id="KwnvREDpGYO3lFJgx3Yo-5" value="&lt;font style=&quot;font-size: 7px;&quot;&gt;3.2&lt;/font&gt;" style="text;html=1;strokeColor=none;fillColor=none;align=center;verticalAlign=middle;whiteSpace=wrap;rounded=0;" parent="1" vertex="1">
          <mxGeometry x="410" y="260" width="30" height="20" as="geometry" />
        </mxCell>
        <mxCell id="KwnvREDpGYO3lFJgx3Yo-6" value="&lt;font style=&quot;font-size: 7px;&quot;&gt;3.3&lt;/font&gt;" style="text;html=1;strokeColor=none;fillColor=none;align=center;verticalAlign=middle;whiteSpace=wrap;rounded=0;" parent="1" vertex="1">
          <mxGeometry x="410" y="340" width="30" height="20" as="geometry" />
        </mxCell>
        <mxCell id="KwnvREDpGYO3lFJgx3Yo-8" value="&lt;font style=&quot;font-size: 7px;&quot;&gt;4.1&lt;/font&gt;" style="text;html=1;strokeColor=none;fillColor=none;align=center;verticalAlign=middle;whiteSpace=wrap;rounded=0;" parent="1" vertex="1">
          <mxGeometry x="560" y="180" width="30" height="20" as="geometry" />
        </mxCell>
        <mxCell id="KwnvREDpGYO3lFJgx3Yo-9" value="&lt;font style=&quot;font-size: 7px;&quot;&gt;4.2&lt;/font&gt;" style="text;html=1;strokeColor=none;fillColor=none;align=center;verticalAlign=middle;whiteSpace=wrap;rounded=0;" parent="1" vertex="1">
          <mxGeometry x="560" y="260" width="30" height="20" as="geometry" />
        </mxCell>
        <mxCell id="KwnvREDpGYO3lFJgx3Yo-10" value="&lt;font style=&quot;font-size: 7px;&quot;&gt;4.3&lt;/font&gt;" style="text;html=1;strokeColor=none;fillColor=none;align=center;verticalAlign=middle;whiteSpace=wrap;rounded=0;" parent="1" vertex="1">
          <mxGeometry x="560" y="340" width="30" height="20" as="geometry" />
        </mxCell>
        <mxCell id="KwnvREDpGYO3lFJgx3Yo-11" value="&lt;font style=&quot;font-size: 7px;&quot;&gt;4.4&lt;/font&gt;" style="text;html=1;strokeColor=none;fillColor=none;align=center;verticalAlign=middle;whiteSpace=wrap;rounded=0;" parent="1" vertex="1">
          <mxGeometry x="560" y="420" width="30" height="20" as="geometry" />
        </mxCell>
        <mxCell id="KwnvREDpGYO3lFJgx3Yo-12" value="&lt;font style=&quot;font-size: 7px;&quot;&gt;4.5&lt;/font&gt;" style="text;html=1;strokeColor=none;fillColor=none;align=center;verticalAlign=middle;whiteSpace=wrap;rounded=0;" parent="1" vertex="1">
          <mxGeometry x="560" y="500" width="30" height="20" as="geometry" />
        </mxCell>
        <mxCell id="KwnvREDpGYO3lFJgx3Yo-13" value="&lt;font style=&quot;font-size: 7px;&quot;&gt;4.6&lt;/font&gt;" style="text;html=1;strokeColor=none;fillColor=none;align=center;verticalAlign=middle;whiteSpace=wrap;rounded=0;" parent="1" vertex="1">
          <mxGeometry x="560" y="580" width="30" height="20" as="geometry" />
        </mxCell>
        <mxCell id="KwnvREDpGYO3lFJgx3Yo-14" value="&lt;font style=&quot;font-size: 7px;&quot;&gt;4.7&lt;/font&gt;" style="text;html=1;strokeColor=none;fillColor=none;align=center;verticalAlign=middle;whiteSpace=wrap;rounded=0;" parent="1" vertex="1">
          <mxGeometry x="560" y="660" width="30" height="20" as="geometry" />
        </mxCell>
        <mxCell id="KwnvREDpGYO3lFJgx3Yo-15" value="&lt;font style=&quot;font-size: 7px;&quot;&gt;4.8&lt;/font&gt;" style="text;html=1;strokeColor=none;fillColor=none;align=center;verticalAlign=middle;whiteSpace=wrap;rounded=0;" parent="1" vertex="1">
          <mxGeometry x="560" y="740" width="30" height="20" as="geometry" />
        </mxCell>
        <mxCell id="KwnvREDpGYO3lFJgx3Yo-16" value="&lt;font style=&quot;font-size: 7px;&quot;&gt;4.9&lt;/font&gt;" style="text;html=1;strokeColor=none;fillColor=none;align=center;verticalAlign=middle;whiteSpace=wrap;rounded=0;" parent="1" vertex="1">
          <mxGeometry x="560" y="820" width="30" height="20" as="geometry" />
        </mxCell>
        <mxCell id="KwnvREDpGYO3lFJgx3Yo-17" value="&lt;font style=&quot;font-size: 7px;&quot;&gt;4.10&lt;/font&gt;" style="text;html=1;strokeColor=none;fillColor=none;align=center;verticalAlign=middle;whiteSpace=wrap;rounded=0;" parent="1" vertex="1">
          <mxGeometry x="560" y="900" width="30" height="20" as="geometry" />
        </mxCell>
        <mxCell id="KwnvREDpGYO3lFJgx3Yo-18" value="&lt;font style=&quot;font-size: 7px;&quot;&gt;5.1&lt;/font&gt;" style="text;html=1;strokeColor=none;fillColor=none;align=center;verticalAlign=middle;whiteSpace=wrap;rounded=0;" parent="1" vertex="1">
          <mxGeometry x="710" y="180" width="30" height="20" as="geometry" />
        </mxCell>
        <mxCell id="KwnvREDpGYO3lFJgx3Yo-19" value="&lt;font style=&quot;font-size: 7px;&quot;&gt;5.2&lt;/font&gt;" style="text;html=1;strokeColor=none;fillColor=none;align=center;verticalAlign=middle;whiteSpace=wrap;rounded=0;" parent="1" vertex="1">
          <mxGeometry x="710" y="260" width="30" height="20" as="geometry" />
        </mxCell>
        <mxCell id="KwnvREDpGYO3lFJgx3Yo-20" value="&lt;font style=&quot;font-size: 7px;&quot;&gt;5.3&lt;/font&gt;" style="text;html=1;strokeColor=none;fillColor=none;align=center;verticalAlign=middle;whiteSpace=wrap;rounded=0;" parent="1" vertex="1">
          <mxGeometry x="710" y="340" width="30" height="20" as="geometry" />
        </mxCell>
        <mxCell id="KwnvREDpGYO3lFJgx3Yo-21" value="&lt;font style=&quot;font-size: 7px;&quot;&gt;5.4&lt;/font&gt;" style="text;html=1;strokeColor=none;fillColor=none;align=center;verticalAlign=middle;whiteSpace=wrap;rounded=0;" parent="1" vertex="1">
          <mxGeometry x="710" y="420" width="30" height="20" as="geometry" />
        </mxCell>
        <mxCell id="KwnvREDpGYO3lFJgx3Yo-22" value="&lt;font style=&quot;font-size: 7px;&quot;&gt;5.5&lt;/font&gt;" style="text;html=1;strokeColor=none;fillColor=none;align=center;verticalAlign=middle;whiteSpace=wrap;rounded=0;" parent="1" vertex="1">
          <mxGeometry x="710" y="500" width="30" height="20" as="geometry" />
        </mxCell>
        <mxCell id="KwnvREDpGYO3lFJgx3Yo-23" value="&lt;font style=&quot;font-size: 7px;&quot;&gt;5.6&lt;/font&gt;" style="text;html=1;strokeColor=none;fillColor=none;align=center;verticalAlign=middle;whiteSpace=wrap;rounded=0;" parent="1" vertex="1">
          <mxGeometry x="710" y="580" width="30" height="20" as="geometry" />
        </mxCell>
        <mxCell id="KwnvREDpGYO3lFJgx3Yo-24" value="&lt;font style=&quot;font-size: 7px;&quot;&gt;6.1&lt;/font&gt;" style="text;html=1;strokeColor=none;fillColor=none;align=center;verticalAlign=middle;whiteSpace=wrap;rounded=0;" parent="1" vertex="1">
          <mxGeometry x="860" y="180" width="30" height="20" as="geometry" />
        </mxCell>
        <mxCell id="KwnvREDpGYO3lFJgx3Yo-25" value="&lt;font style=&quot;font-size: 7px;&quot;&gt;6.2&lt;/font&gt;" style="text;html=1;strokeColor=none;fillColor=none;align=center;verticalAlign=middle;whiteSpace=wrap;rounded=0;" parent="1" vertex="1">
          <mxGeometry x="860" y="260" width="30" height="20" as="geometry" />
        </mxCell>
        <mxCell id="KwnvREDpGYO3lFJgx3Yo-26" value="&lt;font style=&quot;font-size: 7px;&quot;&gt;6.3&lt;/font&gt;" style="text;html=1;strokeColor=none;fillColor=none;align=center;verticalAlign=middle;whiteSpace=wrap;rounded=0;" parent="1" vertex="1">
          <mxGeometry x="860" y="340" width="30" height="20" as="geometry" />
        </mxCell>
        <mxCell id="KwnvREDpGYO3lFJgx3Yo-27" value="&lt;span style=&quot;font-size: 7px;&quot;&gt;6.4&lt;/span&gt;" style="text;html=1;strokeColor=none;fillColor=none;align=center;verticalAlign=middle;whiteSpace=wrap;rounded=0;" parent="1" vertex="1">
          <mxGeometry x="860" y="420" width="30" height="20" as="geometry" />
        </mxCell>
        <mxCell id="KwnvREDpGYO3lFJgx3Yo-29" value="Xác định phạm vi&lt;br&gt;300.000 VNĐ" style="rounded=0;whiteSpace=wrap;html=1;fontSize=10;" parent="1" vertex="1">
          <mxGeometry x="10" y="440" width="120" height="60" as="geometry" />
        </mxCell>
        <mxCell id="KwnvREDpGYO3lFJgx3Yo-30" value="" style="endArrow=none;html=1;rounded=0;exitX=0;exitY=0.5;exitDx=0;exitDy=0;fontSize=10;" parent="1" source="KwnvREDpGYO3lFJgx3Yo-29" edge="1">
          <mxGeometry width="50" height="50" relative="1" as="geometry">
            <mxPoint x="130" y="350" as="sourcePoint" />
            <mxPoint x="70" y="260" as="targetPoint" />
            <Array as="points">
              <mxPoint y="470" />
              <mxPoint y="460" />
              <mxPoint y="300" />
              <mxPoint y="260" />
            </Array>
          </mxGeometry>
        </mxCell>
        <mxCell id="KwnvREDpGYO3lFJgx3Yo-31" value="&lt;font style=&quot;font-size: 7px;&quot;&gt;1.4&lt;/font&gt;" style="text;html=1;strokeColor=none;fillColor=none;align=center;verticalAlign=middle;whiteSpace=wrap;rounded=0;" parent="1" vertex="1">
          <mxGeometry x="110" y="420" width="30" height="20" as="geometry" />
        </mxCell>
      </root>
    </mxGraphModel>
  </diagram>
  <diagram id="mXQST4aQ9N6nwPknDQ92" name="SQL_badminton">
    <mxGraphModel dx="915" dy="554" grid="0" gridSize="10" guides="1" tooltips="1" connect="1" arrows="1" fold="1" page="0" pageScale="1" pageWidth="827" pageHeight="1169" math="0" shadow="0">
      <root>
        <mxCell id="0" />
        <mxCell id="1" parent="0" />
        <mxCell id="LsWEOz6-9N7ZZq9ZgjLg-2" value="danhmuc" style="swimlane;fontStyle=0;childLayout=stackLayout;horizontal=1;startSize=30;horizontalStack=0;resizeParent=1;resizeParentMax=0;resizeLast=0;collapsible=1;marginBottom=0;whiteSpace=wrap;html=1;fontSize=16;" vertex="1" parent="1">
          <mxGeometry x="94" y="393" width="140" height="90" as="geometry" />
        </mxCell>
        <mxCell id="LsWEOz6-9N7ZZq9ZgjLg-3" value="id (Key)" style="text;strokeColor=none;fillColor=none;align=left;verticalAlign=middle;spacingLeft=4;spacingRight=4;overflow=hidden;points=[[0,0.5],[1,0.5]];portConstraint=eastwest;rotatable=0;whiteSpace=wrap;html=1;fontSize=16;" vertex="1" parent="LsWEOz6-9N7ZZq9ZgjLg-2">
          <mxGeometry y="30" width="140" height="30" as="geometry" />
        </mxCell>
        <mxCell id="LsWEOz6-9N7ZZq9ZgjLg-5" value="danhmuc" style="text;strokeColor=none;fillColor=none;align=left;verticalAlign=middle;spacingLeft=4;spacingRight=4;overflow=hidden;points=[[0,0.5],[1,0.5]];portConstraint=eastwest;rotatable=0;whiteSpace=wrap;html=1;fontSize=16;" vertex="1" parent="LsWEOz6-9N7ZZq9ZgjLg-2">
          <mxGeometry y="60" width="140" height="30" as="geometry" />
        </mxCell>
        <mxCell id="LsWEOz6-9N7ZZq9ZgjLg-6" value="mathang" style="swimlane;fontStyle=0;childLayout=stackLayout;horizontal=1;startSize=30;horizontalStack=0;resizeParent=1;resizeParentMax=0;resizeLast=0;collapsible=1;marginBottom=0;whiteSpace=wrap;html=1;fontSize=16;" vertex="1" parent="1">
          <mxGeometry x="248" y="393" width="201" height="252" as="geometry">
            <mxRectangle x="248" y="393" width="60" height="31" as="alternateBounds" />
          </mxGeometry>
        </mxCell>
        <mxCell id="LsWEOz6-9N7ZZq9ZgjLg-7" value="id (Key)&lt;br&gt;tenmathang&lt;br&gt;thuonghieu&lt;br&gt;mota&lt;br&gt;giagoc&lt;br&gt;giaban&lt;br&gt;soluong&lt;br&gt;hinhanh&lt;br&gt;danhmuc_id (Pri_Key)&lt;br&gt;luotxem&lt;br&gt;luotmua" style="text;strokeColor=none;fillColor=none;align=left;verticalAlign=middle;spacingLeft=4;spacingRight=4;overflow=hidden;points=[[0,0.5],[1,0.5]];portConstraint=eastwest;rotatable=0;whiteSpace=wrap;html=1;fontSize=16;" vertex="1" parent="LsWEOz6-9N7ZZq9ZgjLg-6">
          <mxGeometry y="30" width="201" height="222" as="geometry" />
        </mxCell>
        <mxCell id="LsWEOz6-9N7ZZq9ZgjLg-15" value="donhangct" style="swimlane;fontStyle=0;childLayout=stackLayout;horizontal=1;startSize=30;horizontalStack=0;resizeParent=1;resizeParentMax=0;resizeLast=0;collapsible=1;marginBottom=0;whiteSpace=wrap;html=1;fontSize=16;" vertex="1" parent="1">
          <mxGeometry x="535" y="404" width="140" height="60" as="geometry" />
        </mxCell>
        <mxCell id="LsWEOz6-9N7ZZq9ZgjLg-16" value="id (Key)" style="text;strokeColor=none;fillColor=none;align=left;verticalAlign=middle;spacingLeft=4;spacingRight=4;overflow=hidden;points=[[0,0.5],[1,0.5]];portConstraint=eastwest;rotatable=0;whiteSpace=wrap;html=1;fontSize=16;" vertex="1" parent="LsWEOz6-9N7ZZq9ZgjLg-15">
          <mxGeometry y="30" width="140" height="30" as="geometry" />
        </mxCell>
      </root>
    </mxGraphModel>
  </diagram>
</mxfile>
